<svg width="48" height="49" viewBox="0 0 48 49" fill="none" xmlns="http://www.w3.org/2000/svg">
<path d="M7.71695 37.99H7.67695L7.13695 39.1L5.70695 41.74L4.27695 39.1L3.73695 37.99H3.69695V43H2.44695V36.02H3.93695L5.72695 39.43H5.76695L7.53695 36.02H8.96695V43H7.71695V37.99ZM13.731 37.78H14.931L12.831 43.93C12.7643 44.1167 12.6877 44.2767 12.601 44.41C12.521 44.55 12.4243 44.6633 12.311 44.75C12.1977 44.8367 12.061 44.9 11.901 44.94C11.741 44.98 11.5543 45 11.341 45H10.571V43.98H11.511L11.751 43.25L9.88102 37.78H11.151L12.061 40.54L12.401 41.86H12.461L12.821 40.54L13.731 37.78ZM20.2484 43.12C19.8618 43.12 19.5151 43.0567 19.2084 42.93C18.9084 42.7967 18.6518 42.6133 18.4384 42.38C18.2318 42.14 18.0718 41.8533 17.9584 41.52C17.8451 41.18 17.7884 40.8 17.7884 40.38C17.7884 39.9667 17.8418 39.5933 17.9484 39.26C18.0618 38.9267 18.2218 38.6433 18.4284 38.41C18.6351 38.17 18.8884 37.9867 19.1884 37.86C19.4884 37.7267 19.8284 37.66 20.2084 37.66C20.6151 37.66 20.9684 37.73 21.2684 37.87C21.5684 38.01 21.8151 38.2 22.0084 38.44C22.2018 38.68 22.3451 38.96 22.4384 39.28C22.5384 39.5933 22.5884 39.93 22.5884 40.29V40.71H19.1184V40.84C19.1184 41.22 19.2251 41.5267 19.4384 41.76C19.6518 41.9867 19.9684 42.1 20.3884 42.1C20.7084 42.1 20.9684 42.0333 21.1684 41.9C21.3751 41.7667 21.5584 41.5967 21.7184 41.39L22.4084 42.16C22.1951 42.46 21.9018 42.6967 21.5284 42.87C21.1618 43.0367 20.7351 43.12 20.2484 43.12ZM20.2284 38.62C19.8884 38.62 19.6184 38.7333 19.4184 38.96C19.2184 39.1867 19.1184 39.48 19.1184 39.84V39.92H21.2584V39.83C21.2584 39.47 21.1684 39.18 20.9884 38.96C20.8151 38.7333 20.5618 38.62 20.2284 38.62ZM25.867 43.12C25.267 43.12 24.757 43.0133 24.337 42.8C23.9236 42.5867 23.567 42.3067 23.267 41.96L24.157 41.1C24.397 41.38 24.6636 41.5933 24.957 41.74C25.257 41.8867 25.587 41.96 25.947 41.96C26.3536 41.96 26.6603 41.8733 26.867 41.7C27.0736 41.52 27.177 41.28 27.177 40.98C27.177 40.7467 27.1103 40.5567 26.977 40.41C26.8436 40.2633 26.5936 40.1567 26.227 40.09L25.567 39.99C24.1736 39.77 23.477 39.0933 23.477 37.96C23.477 37.6467 23.5336 37.3633 23.647 37.11C23.767 36.8567 23.937 36.64 24.157 36.46C24.377 36.28 24.6403 36.1433 24.947 36.05C25.2603 35.95 25.6136 35.9 26.007 35.9C26.5336 35.9 26.9936 35.9867 27.387 36.16C27.7803 36.3333 28.117 36.59 28.397 36.93L27.497 37.78C27.3236 37.5667 27.1136 37.3933 26.867 37.26C26.6203 37.1267 26.3103 37.06 25.937 37.06C25.557 37.06 25.2703 37.1333 25.077 37.28C24.8903 37.42 24.797 37.62 24.797 37.88C24.797 38.1467 24.8736 38.3433 25.027 38.47C25.1803 38.5967 25.427 38.69 25.767 38.75L26.417 38.87C27.1236 38.9967 27.6436 39.2233 27.977 39.55C28.317 39.87 28.487 40.32 28.487 40.9C28.487 41.2333 28.427 41.5367 28.307 41.81C28.1936 42.0767 28.0236 42.31 27.797 42.51C27.577 42.7033 27.3036 42.8533 26.977 42.96C26.657 43.0667 26.287 43.12 25.867 43.12ZM29.5202 43V41.94H30.4402V37.08H29.5202V36.02H32.6902V37.08H31.7602V41.94H32.6902V43H29.5202ZM39.3088 37.99H39.2688L38.7287 39.1L37.2988 41.74L35.8688 39.1L35.3288 37.99H35.2888V43H34.0388V36.02H35.5288L37.3188 39.43H37.3588L39.1288 36.02H40.5588V43H39.3088V37.99ZM43.8328 43.12C43.3328 43.12 42.9128 43.0367 42.5728 42.87C42.2328 42.6967 41.9328 42.46 41.6728 42.16L42.4528 41.4C42.6461 41.62 42.8561 41.7933 43.0828 41.92C43.3161 42.0467 43.5828 42.11 43.8828 42.11C44.1895 42.11 44.4095 42.0567 44.5428 41.95C44.6828 41.8433 44.7528 41.6967 44.7528 41.51C44.7528 41.3567 44.7028 41.2367 44.6028 41.15C44.5095 41.0567 44.3461 40.9933 44.1128 40.96L43.5928 40.89C43.0261 40.8167 42.5928 40.6567 42.2928 40.41C41.9995 40.1567 41.8528 39.79 41.8528 39.31C41.8528 39.0567 41.8995 38.83 41.9928 38.63C42.0861 38.4233 42.2195 38.25 42.3928 38.11C42.5661 37.9633 42.7728 37.8533 43.0128 37.78C43.2595 37.7 43.5328 37.66 43.8328 37.66C44.0861 37.66 44.3095 37.68 44.5028 37.72C44.7028 37.7533 44.8828 37.8067 45.0428 37.88C45.2028 37.9467 45.3495 38.0333 45.4828 38.14C45.6161 38.24 45.7461 38.3533 45.8728 38.48L45.1228 39.23C44.9695 39.07 44.7861 38.9367 44.5728 38.83C44.3595 38.7233 44.1261 38.67 43.8728 38.67C43.5928 38.67 43.3895 38.72 43.2628 38.82C43.1428 38.92 43.0828 39.05 43.0828 39.21C43.0828 39.3833 43.1328 39.5167 43.2328 39.61C43.3395 39.6967 43.5161 39.76 43.7628 39.8L44.2928 39.87C45.4195 40.03 45.9828 40.5433 45.9828 41.41C45.9828 41.6633 45.9295 41.8967 45.8228 42.11C45.7228 42.3167 45.5795 42.4967 45.3928 42.65C45.2061 42.7967 44.9795 42.9133 44.7128 43C44.4528 43.08 44.1595 43.12 43.8328 43.12Z" fill="#999999"/>
<path fill-rule="evenodd" clip-rule="evenodd" d="M16.5 6.42857C16.5 6.19188 16.6919 6 16.9286 6H17.5714C17.8081 6 18 6.19188 18 6.42857V8.57143C18 8.80812 17.8081 9 17.5714 9H16.9286C16.6919 9 16.5 8.80812 16.5 8.57143V6.42857ZM16.5 11.3571C16.5 10.8838 16.8838 10.5 17.3571 10.5H30.6429C31.1162 10.5 31.5 10.8838 31.5 11.3571V24.6429C31.5 25.1162 31.1162 25.5 30.6429 25.5H17.3571C16.8838 25.5 16.5 25.1162 16.5 24.6429V11.3571ZM19.9286 6C19.6919 6 19.5 6.19188 19.5 6.42857V8.57143C19.5 8.80812 19.6919 9 19.9286 9H20.5714C20.8081 9 21 8.80812 21 8.57143V6.42857C21 6.19188 20.8081 6 20.5714 6H19.9286ZM22.5 6.85714C22.5 6.38376 22.8838 6 23.3571 6H24.6429C25.1162 6 25.5 6.38376 25.5 6.85714V8.14286C25.5 8.61624 25.1162 9 24.6429 9H23.3571C22.8838 9 22.5 8.61624 22.5 8.14286V6.85714ZM27.4286 6C27.1919 6 27 6.19188 27 6.42857V8.57143C27 8.80812 27.1919 9 27.4286 9H28.0714C28.3081 9 28.5 8.80812 28.5 8.57143V6.42857C28.5 6.19188 28.3081 6 28.0714 6H27.4286ZM30 6.42857C30 6.19188 30.1919 6 30.4286 6H31.0714C31.3081 6 31.5 6.19188 31.5 6.42857V8.57143C31.5 8.80812 31.3081 9 31.0714 9H30.4286C30.1919 9 30 8.80812 30 8.57143V6.42857ZM16.9286 27C16.6919 27 16.5 27.1919 16.5 27.4286V29.5714C16.5 29.8081 16.6919 30 16.9286 30H17.5714C17.8081 30 18 29.8081 18 29.5714V27.4286C18 27.1919 17.8081 27 17.5714 27H16.9286ZM19.5 27.4286C19.5 27.1919 19.6919 27 19.9286 27H20.5714C20.8081 27 21 27.1919 21 27.4286V29.5714C21 29.8081 20.8081 30 20.5714 30H19.9286C19.6919 30 19.5 29.8081 19.5 29.5714V27.4286ZM23.3571 27C22.8838 27 22.5 27.3838 22.5 27.8571V29.1429C22.5 29.6162 22.8838 30 23.3571 30H24.6429C25.1162 30 25.5 29.6162 25.5 29.1429V27.8571C25.5 27.3838 25.1162 27 24.6429 27H23.3571ZM27 27.4286C27 27.1919 27.1919 27 27.4286 27H28.0714C28.3081 27 28.5 27.1919 28.5 27.4286V29.5714C28.5 29.8081 28.3081 30 28.0714 30H27.4286C27.1919 30 27 29.8081 27 29.5714V27.4286ZM30.4286 27C30.1919 27 30 27.1919 30 27.4286V29.5714C30 29.8081 30.1919 30 30.4286 30H31.0714C31.3081 30 31.5 29.8081 31.5 29.5714V27.4286C31.5 27.1919 31.3081 27 31.0714 27H30.4286ZM33 10.9286C33 10.6919 33.1919 10.5 33.4286 10.5H35.5714C35.8081 10.5 36 10.6919 36 10.9286V11.5714C36 11.8081 35.8081 12 35.5714 12H33.4286C33.1919 12 33 11.8081 33 11.5714V10.9286ZM12.4286 10.5C12.1919 10.5 12 10.6919 12 10.9286V11.5714C12 11.8081 12.1919 12 12.4286 12H14.5714C14.8081 12 15 11.8081 15 11.5714V10.9286C15 10.6919 14.8081 10.5 14.5714 10.5H12.4286ZM33 13.9286C33 13.6919 33.1919 13.5 33.4286 13.5H35.5714C35.8081 13.5 36 13.6919 36 13.9286V14.5714C36 14.8081 35.8081 15 35.5714 15H33.4286C33.1919 15 33 14.8081 33 14.5714V13.9286ZM12.4286 13.5C12.1919 13.5 12 13.6919 12 13.9286V14.5714C12 14.8081 12.1919 15 12.4286 15H14.5714C14.8081 15 15 14.8081 15 14.5714V13.9286C15 13.6919 14.8081 13.5 14.5714 13.5H12.4286ZM33 21.4286C33 21.1919 33.1919 21 33.4286 21H35.5714C35.8081 21 36 21.1919 36 21.4286V22.0714C36 22.3081 35.8081 22.5 35.5714 22.5H33.4286C33.1919 22.5 33 22.3081 33 22.0714V21.4286ZM12.4286 21C12.1919 21 12 21.1919 12 21.4286V22.0714C12 22.3081 12.1919 22.5 12.4286 22.5H14.5714C14.8081 22.5 15 22.3081 15 22.0714V21.4286C15 21.1919 14.8081 21 14.5714 21H12.4286ZM33 24.4286C33 24.1919 33.1919 24 33.4286 24H35.5714C35.8081 24 36 24.1919 36 24.4286V25.0714C36 25.3081 35.8081 25.5 35.5714 25.5H33.4286C33.1919 25.5 33 25.3081 33 25.0714V24.4286ZM12.4286 24C12.1919 24 12 24.1919 12 24.4286V25.0714C12 25.3081 12.1919 25.5 12.4286 25.5H14.5714C14.8081 25.5 15 25.3081 15 25.0714V24.4286C15 24.1919 14.8081 24 14.5714 24H12.4286ZM33 17.3571C33 16.8838 33.3838 16.5 33.8571 16.5H35.1429C35.6162 16.5 36 16.8838 36 17.3571V18.6429C36 19.1162 35.6162 19.5 35.1429 19.5H33.8571C33.3838 19.5 33 19.1162 33 18.6429V17.3571ZM12.8571 16.5C12.3838 16.5 12 16.8838 12 17.3571V18.6429C12 19.1162 12.3838 19.5 12.8571 19.5H14.1429C14.6162 19.5 15 19.1162 15 18.6429V17.3571C15 16.8838 14.6162 16.5 14.1429 16.5H12.8571Z" fill="#999999"/>
</svg>
