<svg width="80" height="44" viewBox="0 0 80 44" fill="none" xmlns="http://www.w3.org/2000/svg">
<rect x="0.5" y="16.5" width="79" height="27" rx="3.5" stroke="#DDDDDD"/>
<path d="M20.3283 35V27.322H21.7803V33.713H24.8053V35H20.3283ZM29.6704 35.132C29.1644 35.132 28.7061 35.0477 28.2954 34.879C27.8847 34.7103 27.5327 34.4573 27.2394 34.12C26.9534 33.7827 26.7297 33.3683 26.5684 32.877C26.4071 32.3857 26.3264 31.8137 26.3264 31.161C26.3264 30.5157 26.4071 29.9473 26.5684 29.456C26.7297 28.9573 26.9534 28.5393 27.2394 28.202C27.5327 27.8647 27.8847 27.6117 28.2954 27.443C28.7061 27.2743 29.1644 27.19 29.6704 27.19C30.1764 27.19 30.6347 27.2743 31.0454 27.443C31.4561 27.6117 31.8081 27.8647 32.1014 28.202C32.3947 28.5393 32.6184 28.9573 32.7724 29.456C32.9337 29.9473 33.0144 30.5157 33.0144 31.161C33.0144 31.8137 32.9337 32.3857 32.7724 32.877C32.6184 33.3683 32.3947 33.7827 32.1014 34.12C31.8081 34.4573 31.4561 34.7103 31.0454 34.879C30.6347 35.0477 30.1764 35.132 29.6704 35.132ZM29.6704 33.845C30.2204 33.845 30.6567 33.6617 30.9794 33.295C31.3094 32.9283 31.4744 32.415 31.4744 31.755V30.567C31.4744 29.907 31.3094 29.3937 30.9794 29.027C30.6567 28.6603 30.2204 28.477 29.6704 28.477C29.1204 28.477 28.6804 28.6603 28.3504 29.027C28.0277 29.3937 27.8664 29.907 27.8664 30.567V31.755C27.8664 32.415 28.0277 32.9283 28.3504 33.295C28.6804 33.6617 29.1204 33.845 29.6704 33.845ZM40.3824 33.812H40.3384C40.2724 34.186 40.0634 34.5013 39.7114 34.758C39.3668 35.0073 38.9048 35.132 38.3254 35.132C37.8708 35.132 37.4491 35.0477 37.0604 34.879C36.6791 34.7103 36.3454 34.461 36.0594 34.131C35.7808 33.7937 35.5608 33.3793 35.3994 32.888C35.2381 32.3967 35.1574 31.8283 35.1574 31.183C35.1574 30.5377 35.2381 29.9693 35.3994 29.478C35.5681 28.9793 35.8028 28.5613 36.1034 28.224C36.4041 27.8867 36.7634 27.63 37.1814 27.454C37.5994 27.278 38.0651 27.19 38.5784 27.19C39.2678 27.19 39.8544 27.3403 40.3384 27.641C40.8224 27.9417 41.2038 28.3743 41.4824 28.939L40.3054 29.632C40.1661 29.302 39.9571 29.027 39.6784 28.807C39.4071 28.587 39.0404 28.477 38.5784 28.477C38.0064 28.477 37.5481 28.653 37.2034 29.005C36.8661 29.3497 36.6974 29.863 36.6974 30.545V31.777C36.6974 32.4517 36.8698 32.965 37.2144 33.317C37.5591 33.669 38.0211 33.845 38.6004 33.845C38.8278 33.845 39.0404 33.8193 39.2384 33.768C39.4364 33.7093 39.6088 33.625 39.7554 33.515C39.9021 33.405 40.0194 33.2693 40.1074 33.108C40.1954 32.9467 40.2394 32.756 40.2394 32.536V32.041H38.7324V30.82H41.6364V35H40.3824V33.812ZM47.5991 35V33.834H48.6111V28.488H47.5991V27.322H51.0861V28.488H50.0631V33.834H51.0861V35H47.5991ZM55.7695 31.062L54.9775 29.467H54.9445V35H53.5695V27.322H55.1645L57.4745 31.26L58.2665 32.855H58.2995V27.322H59.6745V35H58.0795L55.7695 31.062Z" fill="#4A4A4A"/>
<path fill-rule="evenodd" clip-rule="evenodd" d="M14.6364 8C14.6364 4.6855 12.0322 2 8.81818 2C5.60412 2 3 4.6855 3 8C3 11.3145 5.60412 14 8.81818 14C12.0322 14 14.6364 11.3145 14.6364 8ZM8.81818 13.25C6.00673 13.25 3.72727 10.8993 3.72727 8C3.72727 5.10069 6.00673 2.75 8.81818 2.75C11.6296 2.75 13.9091 5.10069 13.9091 8C13.9091 10.8993 11.6296 13.25 8.81818 13.25ZM15.9256 6.5C16.0216 6.98464 16.072 7.48628 16.072 8C16.072 8.51372 16.0216 9.01536 15.9256 9.5H17.5C18.3284 9.5 19 8.82843 19 8C19 7.17157 18.3284 6.5 17.5 6.5H15.9256ZM15.737 5.75H17.5C18.3284 5.75 19 5.07843 19 4.25C19 3.42157 18.3284 2.75 17.5 2.75H13.9802C14.778 3.58396 15.3872 4.60809 15.737 5.75ZM13.9802 13.25C14.778 12.416 15.3872 11.3919 15.737 10.25H17.5C18.3284 10.25 19 10.9216 19 11.75C19 12.5784 18.3284 13.25 17.5 13.25H13.9802ZM12.4545 8C12.4545 10.0711 10.8265 11.75 8.81818 11.75C6.80987 11.75 5.18182 10.0711 5.18182 8C5.18182 5.92893 6.80987 4.25 8.81818 4.25C10.8265 4.25 12.4545 5.92893 12.4545 8ZM9.16193 10.0455H8.58985V9.60884C8.083 9.56613 7.74678 9.37155 7.49587 9.11053L7.94751 8.72137C8.13821 8.9112 8.37406 9.03934 8.65509 9.0773V8.22305C7.90235 8.07593 7.59623 7.76271 7.59623 7.30236C7.59623 6.80405 7.94249 6.47184 8.58985 6.40065V5.95455H9.16193V6.40065C9.56339 6.44337 9.85947 6.59049 10.0803 6.82778L9.62361 7.21694C9.50318 7.0888 9.34259 6.98439 9.10171 6.93219V7.72C9.80427 7.87186 10.1405 8.14237 10.1405 8.62645C10.1405 9.09154 9.82936 9.48545 9.16193 9.58985V10.0455ZM8.28875 7.28338C8.28875 7.46372 8.39916 7.55864 8.65509 7.62508V6.9227C8.39916 6.97015 8.28875 7.09829 8.28875 7.28338ZM9.44797 8.67865C9.44797 8.54103 9.38776 8.39865 9.10171 8.31797V9.06781C9.33757 9.00612 9.44797 8.859 9.44797 8.67865Z" fill="#4A4A4A"/>
<path d="M29.5936 12L28.7746 9.543H25.3816L24.5886 12H23.0936L26.1876 2.926H28.0336L31.1276 12H29.5936ZM27.1106 4.278H27.0456L25.7326 8.282H28.4106L27.1106 4.278ZM33.144 4.031C32.8494 4.031 32.6327 3.96167 32.494 3.823C32.364 3.68433 32.299 3.50667 32.299 3.29V3.069C32.299 2.85233 32.364 2.67467 32.494 2.536C32.6327 2.39733 32.8494 2.328 33.144 2.328C33.4387 2.328 33.651 2.39733 33.781 2.536C33.911 2.67467 33.976 2.85233 33.976 3.069V3.29C33.976 3.50667 33.911 3.68433 33.781 3.823C33.651 3.96167 33.4387 4.031 33.144 4.031ZM32.429 5.24H33.846V12H32.429V5.24ZM35.8695 12V5.24H37.2865V6.54H37.3515C37.4468 6.19333 37.6461 5.89 37.9495 5.63C38.2528 5.37 38.6731 5.24 39.2105 5.24H39.5875V6.605H39.0285C38.4651 6.605 38.0318 6.696 37.7285 6.878C37.4338 7.06 37.2865 7.32867 37.2865 7.684V12H35.8695ZM40.846 12V5.24H42.263V6.358H42.328C42.3974 6.18467 42.4797 6.02 42.575 5.864C42.679 5.708 42.8004 5.57367 42.939 5.461C43.0864 5.33967 43.2554 5.24867 43.446 5.188C43.6454 5.11867 43.875 5.084 44.135 5.084C44.5944 5.084 45.0017 5.19667 45.357 5.422C45.7124 5.64733 45.9724 5.994 46.137 6.462H46.176C46.2974 6.08067 46.5314 5.75567 46.878 5.487C47.2247 5.21833 47.671 5.084 48.217 5.084C48.893 5.084 49.4174 5.31367 49.79 5.773C50.1627 6.22367 50.349 6.86933 50.349 7.71V12H48.932V7.879C48.932 7.359 48.8324 6.969 48.633 6.709C48.4337 6.44033 48.1174 6.306 47.684 6.306C47.502 6.306 47.3287 6.332 47.164 6.384C46.9994 6.42733 46.852 6.49667 46.722 6.592C46.6007 6.68733 46.501 6.80867 46.423 6.956C46.345 7.10333 46.306 7.27233 46.306 7.463V12H44.889V7.879C44.889 6.83033 44.4774 6.306 43.654 6.306C43.4807 6.306 43.3074 6.332 43.134 6.384C42.9694 6.42733 42.822 6.49667 42.692 6.592C42.562 6.68733 42.458 6.80867 42.38 6.956C42.302 7.10333 42.263 7.27233 42.263 7.463V12H40.846ZM54.9619 12.156C54.4939 12.156 54.0649 12.0737 53.6749 11.909C53.2936 11.7443 52.9686 11.5103 52.6999 11.207C52.4312 10.895 52.2232 10.5223 52.0759 10.089C51.9286 9.647 51.8549 9.15733 51.8549 8.62C51.8549 8.08267 51.9286 7.59733 52.0759 7.164C52.2232 6.722 52.4312 6.34933 52.6999 6.046C52.9686 5.734 53.2936 5.49567 53.6749 5.331C54.0649 5.16633 54.4939 5.084 54.9619 5.084C55.4299 5.084 55.8546 5.16633 56.2359 5.331C56.6259 5.49567 56.9552 5.734 57.2239 6.046C57.4926 6.34933 57.7006 6.722 57.8479 7.164C57.9952 7.59733 58.0689 8.08267 58.0689 8.62C58.0689 9.15733 57.9952 9.647 57.8479 10.089C57.7006 10.5223 57.4926 10.895 57.2239 11.207C56.9552 11.5103 56.6259 11.7443 56.2359 11.909C55.8546 12.0737 55.4299 12.156 54.9619 12.156ZM54.9619 10.986C55.4472 10.986 55.8372 10.8387 56.1319 10.544C56.4266 10.2407 56.5739 9.79 56.5739 9.192V8.048C56.5739 7.45 56.4266 7.00367 56.1319 6.709C55.8372 6.40567 55.4472 6.254 54.9619 6.254C54.4766 6.254 54.0866 6.40567 53.7919 6.709C53.4972 7.00367 53.3499 7.45 53.3499 8.048V9.192C53.3499 9.79 53.4972 10.2407 53.7919 10.544C54.0866 10.8387 54.4766 10.986 54.9619 10.986ZM59.6478 12V5.24H61.0648V6.358H61.1298C61.2771 5.994 61.4981 5.69067 61.7928 5.448C62.0961 5.20533 62.5078 5.084 63.0278 5.084C63.7211 5.084 64.2585 5.31367 64.6398 5.773C65.0298 6.22367 65.2248 6.86933 65.2248 7.71V12H63.8078V7.892C63.8078 6.83467 63.3831 6.306 62.5338 6.306C62.3518 6.306 62.1698 6.332 61.9878 6.384C61.8145 6.42733 61.6585 6.49667 61.5198 6.592C61.3811 6.68733 61.2685 6.80867 61.1818 6.956C61.1038 7.10333 61.0648 7.27667 61.0648 7.476V12H59.6478ZM69.8408 12.156C69.3555 12.156 68.9221 12.0737 68.5408 11.909C68.1595 11.7443 67.8345 11.5103 67.5658 11.207C67.2971 10.895 67.0891 10.5223 66.9418 10.089C66.8031 9.647 66.7338 9.15733 66.7338 8.62C66.7338 8.08267 66.8031 7.59733 66.9418 7.164C67.0891 6.722 67.2971 6.34933 67.5658 6.046C67.8345 5.734 68.1595 5.49567 68.5408 5.331C68.9221 5.16633 69.3555 5.084 69.8408 5.084C70.3348 5.084 70.7681 5.17067 71.1408 5.344C71.5221 5.51733 71.8385 5.76 72.0898 6.072C72.3411 6.37533 72.5275 6.73067 72.6488 7.138C72.7788 7.54533 72.8438 7.983 72.8438 8.451V8.984H68.2028V9.205C68.2028 9.725 68.3545 10.154 68.6578 10.492C68.9698 10.8213 69.4118 10.986 69.9838 10.986C70.3998 10.986 70.7508 10.895 71.0368 10.713C71.3228 10.531 71.5655 10.284 71.7648 9.972L72.5968 10.791C72.3455 11.207 71.9815 11.5407 71.5048 11.792C71.0281 12.0347 70.4735 12.156 69.8408 12.156ZM69.8408 6.189C69.5981 6.189 69.3728 6.23233 69.1648 6.319C68.9655 6.40567 68.7921 6.527 68.6448 6.683C68.5061 6.839 68.3978 7.02533 68.3198 7.242C68.2418 7.45867 68.2028 7.697 68.2028 7.957V8.048H71.3488V7.918C71.3488 7.398 71.2145 6.982 70.9458 6.67C70.6771 6.34933 70.3088 6.189 69.8408 6.189ZM78.4833 5.24H79.8483L77.0013 13.339C76.9233 13.5643 76.8323 13.755 76.7283 13.911C76.6329 14.0757 76.5159 14.2057 76.3773 14.301C76.2473 14.405 76.0869 14.4787 75.8963 14.522C75.7056 14.574 75.4803 14.6 75.2203 14.6H74.4013V13.443H75.5453L75.9353 12.299L73.4783 5.24H74.8953L76.2473 9.218L76.6373 10.687H76.7023L77.1313 9.218L78.4833 5.24Z" fill="#4A4A4A"/>
</svg>
