<svg width="22" height="22" viewBox="0 0 22 22" fill="none" xmlns="http://www.w3.org/2000/svg">
<path fill-rule="evenodd" clip-rule="evenodd" d="M13.8985 12.5995C14.6402 11.6256 15.0576 10.3735 15.0576 9.02835C15.0576 5.68941 12.3682 3 9.02924 3C5.6903 3 3 5.6903 3 9.02924C3 12.3682 5.68941 15.0576 9.02835 15.0576C10.3735 15.0576 11.5786 14.6402 12.5995 13.8985L17.4227 18.7218C17.6079 18.907 17.8401 19 18.0722 19C18.3044 19 18.5357 18.907 18.7218 18.7218C19.0922 18.3505 19.0922 17.794 18.7209 17.4227L13.8985 12.5995ZM9.02924 13.2029C6.71024 13.2029 4.85556 11.3483 4.85556 9.02924C4.85556 6.71024 6.71024 4.85556 9.02924 4.85556C11.3483 4.85556 13.2029 6.71024 13.2029 9.02924C13.2029 11.3474 11.3474 13.2029 9.02924 13.2029Z" fill="#4A4A4A"/>
<mask id="mask0_1801_1740" style="mask-type:luminance" maskUnits="userSpaceOnUse" x="3" y="3" width="16" height="16">
<path fill-rule="evenodd" clip-rule="evenodd" d="M13.8985 12.5995C14.6402 11.6256 15.0576 10.3735 15.0576 9.02835C15.0576 5.68941 12.3682 3 9.02924 3C5.6903 3 3 5.6903 3 9.02924C3 12.3682 5.68941 15.0576 9.02835 15.0576C10.3735 15.0576 11.5786 14.6402 12.5995 13.8985L17.4227 18.7218C17.6079 18.907 17.8401 19 18.0722 19C18.3044 19 18.5357 18.907 18.7218 18.7218C19.0922 18.3505 19.0922 17.794 18.7209 17.4227L13.8985 12.5995ZM9.02924 13.2029C6.71024 13.2029 4.85556 11.3483 4.85556 9.02924C4.85556 6.71024 6.71024 4.85556 9.02924 4.85556C11.3483 4.85556 13.2029 6.71024 13.2029 9.02924C13.2029 11.3474 11.3474 13.2029 9.02924 13.2029Z" fill="white"/>
</mask>
<g mask="url(#mask0_1801_1740)">
</g>
</svg>
