<svg width="22" height="22" viewBox="0 0 22 22" fill="none" xmlns="http://www.w3.org/2000/svg">
<path fill-rule="evenodd" clip-rule="evenodd" d="M15.5299 17C15.7823 17 16.0014 16.9134 16.1741 16.7336L21.268 11.7392C21.5005 11.5194 21.6001 11.2797 21.6001 11C21.6001 10.7137 21.5005 10.4806 21.268 10.2608L16.1741 5.26637C16.0014 5.08657 15.7889 5 15.5299 5C15.0185 5 14.6001 5.41287 14.6001 5.92564C14.6001 6.17869 14.7064 6.41176 14.8923 6.59822L19.4084 10.9933L14.8923 15.4018C14.7064 15.5816 14.6001 15.8147 14.6001 16.0744C14.6001 16.5871 15.0185 17 15.5299 17Z" fill="#4A4A4A"/>
</svg>
