<svg width="48" height="49" viewBox="0 0 48 49" fill="none" xmlns="http://www.w3.org/2000/svg">
<path fill-rule="evenodd" clip-rule="evenodd" d="M24 6C17.3811 6 12 11.3811 12 18C12 24.6189 17.3811 30 24 30C30.6189 30 36 24.6189 36 18C36 11.3811 30.6189 6 24 6ZM30.5686 25.276V23.6086C30.5686 22.0171 29.2802 20.7034 27.6634 20.7034H20.3371C18.7455 20.7034 17.4318 21.9918 17.4318 23.6086V25.276C15.436 23.4823 14.1981 20.8802 14.1981 18.0002C14.1981 12.5939 18.5939 8.1981 24.0002 8.1981C29.4065 8.1981 33.8023 12.5939 33.8023 18.0002C33.8023 20.8802 32.5644 23.4823 30.5686 25.276ZM24.0001 19.6169C26.1627 19.6169 27.9158 17.8637 27.9158 15.7011C27.9158 13.5385 26.1627 11.7853 24.0001 11.7853C21.8374 11.7853 20.0843 13.5385 20.0843 15.7011C20.0843 17.8637 21.8374 19.6169 24.0001 19.6169Z" fill="#999999"/>
<path d="M9.56121 43V36.02H12.7012C13.0212 36.02 13.3079 36.0733 13.5612 36.18C13.8212 36.28 14.0412 36.4267 14.2212 36.62C14.4012 36.8067 14.5379 37.0333 14.6312 37.3C14.7245 37.5667 14.7712 37.86 14.7712 38.18C14.7712 38.5067 14.7245 38.8033 14.6312 39.07C14.5379 39.33 14.4012 39.5567 14.2212 39.75C14.0412 39.9367 13.8212 40.0833 13.5612 40.19C13.3079 40.29 13.0212 40.34 12.7012 40.34H10.8812V43H9.56121ZM10.8812 39.2H12.5812C12.8345 39.2 13.0345 39.1333 13.1812 39C13.3279 38.86 13.4012 38.6633 13.4012 38.41V37.95C13.4012 37.6967 13.3279 37.5033 13.1812 37.37C13.0345 37.2367 12.8345 37.17 12.5812 37.17H10.8812V39.2ZM15.7898 43V37.78H17.0698V38.86H17.1198C17.1531 38.72 17.2031 38.5867 17.2698 38.46C17.3431 38.3267 17.4365 38.21 17.5498 38.11C17.6631 38.01 17.7965 37.93 17.9498 37.87C18.1098 37.81 18.2931 37.78 18.4998 37.78H18.7798V38.99H18.3798C17.9465 38.99 17.6198 39.0533 17.3998 39.18C17.1798 39.3067 17.0698 39.5133 17.0698 39.8V43H15.7898ZM21.7368 43.12C21.3634 43.12 21.0268 43.0567 20.7268 42.93C20.4334 42.8033 20.1801 42.62 19.9668 42.38C19.7601 42.14 19.6001 41.8533 19.4868 41.52C19.3734 41.18 19.3168 40.8 19.3168 40.38C19.3168 39.96 19.3734 39.5833 19.4868 39.25C19.6001 38.9167 19.7601 38.6333 19.9668 38.4C20.1801 38.16 20.4334 37.9767 20.7268 37.85C21.0268 37.7233 21.3634 37.66 21.7368 37.66C22.1101 37.66 22.4468 37.7233 22.7468 37.85C23.0468 37.9767 23.3001 38.16 23.5068 38.4C23.7201 38.6333 23.8834 38.9167 23.9968 39.25C24.1101 39.5833 24.1668 39.96 24.1668 40.38C24.1668 40.8 24.1101 41.18 23.9968 41.52C23.8834 41.8533 23.7201 42.14 23.5068 42.38C23.3001 42.62 23.0468 42.8033 22.7468 42.93C22.4468 43.0567 22.1101 43.12 21.7368 43.12ZM21.7368 42.09C22.0768 42.09 22.3434 41.9867 22.5368 41.78C22.7301 41.5733 22.8268 41.27 22.8268 40.87V39.9C22.8268 39.5067 22.7301 39.2067 22.5368 39C22.3434 38.7933 22.0768 38.69 21.7368 38.69C21.4034 38.69 21.1401 38.7933 20.9468 39C20.7534 39.2067 20.6568 39.5067 20.6568 39.9V40.87C20.6568 41.27 20.7534 41.5733 20.9468 41.78C21.1401 41.9867 21.4034 42.09 21.7368 42.09ZM25.5029 38.79H24.7329V37.78H25.5029V37.03C25.5029 36.57 25.6229 36.2167 25.8629 35.97C26.1096 35.7233 26.4696 35.6 26.9429 35.6H27.8529V36.62H26.7829V37.78H30.0029V43H28.7229V38.79H26.7829V43H25.5029V38.79ZM29.3629 37.02C29.0963 37.02 28.9029 36.96 28.7829 36.84C28.6696 36.72 28.6129 36.5667 28.6129 36.38V36.18C28.6129 35.9933 28.6696 35.84 28.7829 35.72C28.9029 35.6 29.0963 35.54 29.3629 35.54C29.6229 35.54 29.8129 35.6 29.9329 35.72C30.0529 35.84 30.1129 35.9933 30.1129 36.18V36.38C30.1129 36.5667 30.0529 36.72 29.9329 36.84C29.8129 36.96 29.6229 37.02 29.3629 37.02ZM32.7632 43C32.3232 43 31.9998 42.89 31.7932 42.67C31.5865 42.45 31.4832 42.14 31.4832 41.74V35.6H32.7632V41.98H33.4532V43H32.7632ZM36.5326 43.12C36.146 43.12 35.7993 43.0567 35.4926 42.93C35.1926 42.7967 34.936 42.6133 34.7226 42.38C34.516 42.14 34.356 41.8533 34.2426 41.52C34.1293 41.18 34.0726 40.8 34.0726 40.38C34.0726 39.9667 34.126 39.5933 34.2326 39.26C34.346 38.9267 34.506 38.6433 34.7126 38.41C34.9193 38.17 35.1726 37.9867 35.4726 37.86C35.7726 37.7267 36.1126 37.66 36.4926 37.66C36.8993 37.66 37.2526 37.73 37.5526 37.87C37.8526 38.01 38.0993 38.2 38.2926 38.44C38.486 38.68 38.6293 38.96 38.7226 39.28C38.8226 39.5933 38.8726 39.93 38.8726 40.29V40.71H35.4026V40.84C35.4026 41.22 35.5093 41.5267 35.7226 41.76C35.936 41.9867 36.2526 42.1 36.6726 42.1C36.9926 42.1 37.2526 42.0333 37.4526 41.9C37.6593 41.7667 37.8426 41.5967 38.0026 41.39L38.6926 42.16C38.4793 42.46 38.186 42.6967 37.8126 42.87C37.446 43.0367 37.0193 43.12 36.5326 43.12ZM36.5126 38.62C36.1726 38.62 35.9026 38.7333 35.7026 38.96C35.5026 39.1867 35.4026 39.48 35.4026 39.84V39.92H37.5426V39.83C37.5426 39.47 37.4526 39.18 37.2726 38.96C37.0993 38.7333 36.846 38.62 36.5126 38.62Z" fill="#999999"/>
</svg>
