<svg width="48" height="49" viewBox="0 0 48 49" fill="none" xmlns="http://www.w3.org/2000/svg">
<g clip-path="url(#clip0_20_3589)">
<path d="M14.5584 43.12C13.9584 43.12 13.4484 43.0133 13.0284 42.8C12.615 42.5867 12.2584 42.3067 11.9584 41.96L12.8484 41.1C13.0884 41.38 13.355 41.5933 13.6484 41.74C13.9484 41.8867 14.2784 41.96 14.6384 41.96C15.045 41.96 15.3517 41.8733 15.5584 41.7C15.765 41.52 15.8684 41.28 15.8684 40.98C15.8684 40.7467 15.8017 40.5567 15.6684 40.41C15.535 40.2633 15.285 40.1567 14.9184 40.09L14.2584 39.99C12.865 39.77 12.1684 39.0933 12.1684 37.96C12.1684 37.6467 12.225 37.3633 12.3384 37.11C12.4584 36.8567 12.6284 36.64 12.8484 36.46C13.0684 36.28 13.3317 36.1433 13.6384 36.05C13.9517 35.95 14.305 35.9 14.6984 35.9C15.225 35.9 15.685 35.9867 16.0784 36.16C16.4717 36.3333 16.8084 36.59 17.0884 36.93L16.1884 37.78C16.015 37.5667 15.805 37.3933 15.5584 37.26C15.3117 37.1267 15.0017 37.06 14.6284 37.06C14.2484 37.06 13.9617 37.1333 13.7684 37.28C13.5817 37.42 13.4884 37.62 13.4884 37.88C13.4884 38.1467 13.565 38.3433 13.7184 38.47C13.8717 38.5967 14.1184 38.69 14.4584 38.75L15.1084 38.87C15.815 38.9967 16.335 39.2233 16.6684 39.55C17.0084 39.87 17.1784 40.32 17.1784 40.9C17.1784 41.2333 17.1184 41.5367 16.9984 41.81C16.885 42.0767 16.715 42.31 16.4884 42.51C16.2684 42.7033 15.995 42.8533 15.6684 42.96C15.3484 43.0667 14.9784 43.12 14.5584 43.12ZM20.0126 43C19.5726 43 19.2359 42.8867 19.0026 42.66C18.7759 42.4267 18.6626 42.0967 18.6626 41.67V38.8H17.8926V37.78H18.2926C18.4859 37.78 18.6159 37.7367 18.6826 37.65C18.7559 37.5567 18.7926 37.42 18.7926 37.24V36.35H19.9426V37.78H21.0126V38.8H19.9426V41.98H20.9326V43H20.0126ZM24.1538 43.12C23.7804 43.12 23.4438 43.0567 23.1438 42.93C22.8504 42.8033 22.5971 42.62 22.3838 42.38C22.1771 42.14 22.0171 41.8533 21.9038 41.52C21.7904 41.18 21.7338 40.8 21.7338 40.38C21.7338 39.96 21.7904 39.5833 21.9038 39.25C22.0171 38.9167 22.1771 38.6333 22.3838 38.4C22.5971 38.16 22.8504 37.9767 23.1438 37.85C23.4438 37.7233 23.7804 37.66 24.1538 37.66C24.5271 37.66 24.8638 37.7233 25.1638 37.85C25.4638 37.9767 25.7171 38.16 25.9238 38.4C26.1371 38.6333 26.3004 38.9167 26.4138 39.25C26.5271 39.5833 26.5838 39.96 26.5838 40.38C26.5838 40.8 26.5271 41.18 26.4138 41.52C26.3004 41.8533 26.1371 42.14 25.9238 42.38C25.7171 42.62 25.4638 42.8033 25.1638 42.93C24.8638 43.0567 24.5271 43.12 24.1538 43.12ZM24.1538 42.09C24.4938 42.09 24.7604 41.9867 24.9538 41.78C25.1471 41.5733 25.2438 41.27 25.2438 40.87V39.9C25.2438 39.5067 25.1471 39.2067 24.9538 39C24.7604 38.7933 24.4938 38.69 24.1538 38.69C23.8204 38.69 23.5571 38.7933 23.3638 39C23.1704 39.2067 23.0738 39.5067 23.0738 39.9V40.87C23.0738 41.27 23.1704 41.5733 23.3638 41.78C23.5571 41.9867 23.8204 42.09 24.1538 42.09ZM27.7185 43V37.78H28.9985V38.86H29.0485C29.0818 38.72 29.1318 38.5867 29.1985 38.46C29.2718 38.3267 29.3652 38.21 29.4785 38.11C29.5918 38.01 29.7252 37.93 29.8785 37.87C30.0385 37.81 30.2218 37.78 30.4285 37.78H30.7085V38.99H30.3085C29.8752 38.99 29.5485 39.0533 29.3285 39.18C29.1085 39.3067 28.9985 39.5133 28.9985 39.8V43H27.7185ZM33.7055 43.12C33.3188 43.12 32.9721 43.0567 32.6655 42.93C32.3655 42.7967 32.1088 42.6133 31.8955 42.38C31.6888 42.14 31.5288 41.8533 31.4155 41.52C31.3021 41.18 31.2455 40.8 31.2455 40.38C31.2455 39.9667 31.2988 39.5933 31.4055 39.26C31.5188 38.9267 31.6788 38.6433 31.8855 38.41C32.0921 38.17 32.3455 37.9867 32.6455 37.86C32.9455 37.7267 33.2855 37.66 33.6655 37.66C34.0721 37.66 34.4255 37.73 34.7255 37.87C35.0255 38.01 35.2721 38.2 35.4655 38.44C35.6588 38.68 35.8021 38.96 35.8955 39.28C35.9955 39.5933 36.0455 39.93 36.0455 40.29V40.71H32.5755V40.84C32.5755 41.22 32.6821 41.5267 32.8955 41.76C33.1088 41.9867 33.4255 42.1 33.8455 42.1C34.1655 42.1 34.4255 42.0333 34.6255 41.9C34.8321 41.7667 35.0155 41.5967 35.1755 41.39L35.8655 42.16C35.6521 42.46 35.3588 42.6967 34.9855 42.87C34.6188 43.0367 34.1921 43.12 33.7055 43.12ZM33.6855 38.62C33.3455 38.62 33.0755 38.7333 32.8755 38.96C32.6755 39.1867 32.5755 39.48 32.5755 39.84V39.92H34.7155V39.83C34.7155 39.47 34.6255 39.18 34.4455 38.96C34.2721 38.7333 34.0188 38.62 33.6855 38.62Z" fill="#999999"/>
<path fill-rule="evenodd" clip-rule="evenodd" d="M33.0666 7.86188L34.8718 13.1857C34.947 13.4061 34.9903 13.6386 35 13.8744C35 15.3879 33.5939 16.625 31.8619 16.625C30.2543 16.625 28.9324 15.5693 28.7457 14.2084L28.3795 11.6063H26.9148L27.1381 13.7095V13.8744C27.1381 15.3879 25.732 16.625 24 16.625C22.268 16.625 20.8619 15.392 20.8619 13.8744V13.7012L21.0559 11.6063H19.5912L19.2543 14.2208C19.0676 15.5734 17.7383 16.625 16.1382 16.625C14.4025 16.625 13 15.392 13 13.8744C12.9997 13.6403 13.0331 13.4078 13.0989 13.1857L14.9188 7.86188C15.0931 7.34787 15.5288 7.0061 16.0173 7H31.968C32.4566 7.0061 32.8922 7.34787 33.0666 7.86188ZM29.8918 24.0123V19.375L32.25 19.3833V27.063C32.2481 28.1318 31.51 28.9977 30.5989 29H17.4011C16.49 28.9977 15.7519 28.1318 15.75 27.063V19.3833H18.1046V24.0123C18.1046 24.4704 18.4212 24.8418 18.8117 24.8418H29.1848C29.5753 24.8418 29.8918 24.4704 29.8918 24.0123Z" fill="#999999"/>
</g>
<defs>
<clipPath id="clip0_20_3589">
<rect width="48" height="42" fill="white" transform="translate(0 4)"/>
</clipPath>
</defs>
</svg>
