<svg width="335" height="288" viewBox="0 0 335 288" fill="none" xmlns="http://www.w3.org/2000/svg">
<g clip-path="url(#clip0_16_1432)">
<rect x="20.5" y="224.5" width="294" height="43" rx="6.5" stroke="#4A4A4A"/>
</g>
<rect opacity="0.10129" y="203" width="335" height="1" fill="#232323"/>
<g clip-path="url(#clip1_16_1432)">
<path d="M54.684 180L52.176 172.322H53.661L54.838 176.062L55.52 178.614H55.553L56.224 176.062L57.401 172.322H58.842L56.334 180H54.684ZM65.1208 180L64.5048 178.042H61.7768L61.1718 180H59.6978L62.2718 172.322H64.0758L66.6278 180H65.1208ZM63.1628 173.642H63.1078L62.1288 176.799H64.1528L63.1628 173.642ZM68.7594 180V172.322H70.2114V178.713H73.2364V180H68.7594ZM75.1768 180V178.834H76.1888V173.488H75.1768V172.322H78.6638V173.488H77.6408V178.834H78.6638V180H75.1768ZM81.1471 172.322H83.9411C84.4398 172.322 84.8908 172.403 85.2941 172.564C85.7048 172.725 86.0531 172.967 86.3391 173.29C86.6325 173.605 86.8561 174.005 87.0101 174.489C87.1715 174.966 87.2521 175.523 87.2521 176.161C87.2521 176.799 87.1715 177.36 87.0101 177.844C86.8561 178.321 86.6325 178.72 86.3391 179.043C86.0531 179.358 85.7048 179.597 85.2941 179.758C84.8908 179.919 84.4398 180 83.9411 180H81.1471V172.322ZM83.9411 178.713C84.4838 178.713 84.9128 178.555 85.2281 178.24C85.5508 177.917 85.7121 177.426 85.7121 176.766V175.556C85.7121 174.896 85.5508 174.408 85.2281 174.093C84.9128 173.77 84.4838 173.609 83.9411 173.609H82.5991V178.713H83.9411ZM89.4121 180V178.834H90.4241V173.488H89.4121V172.322H92.8991V173.488H91.8761V178.834H92.8991V180H89.4121ZM98.3428 173.609V180H96.8908V173.609H94.7128V172.322H100.521V173.609H98.3428ZM104.59 180V176.986L101.961 172.322H103.589L105.36 175.567H105.382L107.109 172.322H108.693L106.053 176.975V180H104.59Z" fill="#4A4A4A"/>
<path fill-rule="evenodd" clip-rule="evenodd" d="M34.7012 167C34.9167 167 35.0915 167.175 35.0915 167.39V170.707C35.0915 170.923 34.9167 171.098 34.7012 171.098C34.4857 171.098 34.311 170.923 34.311 170.707V167.39C34.311 167.175 34.4857 167 34.7012 167ZM27.2866 167C27.5021 167 27.6768 167.175 27.6768 167.39V170.707C27.6768 170.923 27.5021 171.098 27.2866 171.098C27.071 171.098 26.8963 170.923 26.8963 170.707V167.39C26.8963 167.175 27.071 167 27.2866 167ZM37.4329 168.171C38.3004 168.171 39 168.87 39 169.738V173.244H23V169.738C23 168.87 23.6996 168.171 24.5671 168.171H25.7317H26.5061V169.835C26.2668 170.05 26.1158 170.361 26.1158 170.707C26.1158 171.354 26.64 171.878 27.2866 171.878C27.9332 171.878 28.4573 171.354 28.4573 170.707C28.4573 170.361 28.3064 170.05 28.0671 169.835V168.171H33.9268V169.829C33.6838 170.044 33.5305 170.358 33.5305 170.707C33.5305 171.354 34.0546 171.878 34.7012 171.878C35.3478 171.878 35.8719 171.354 35.8719 170.707C35.8719 170.364 35.7234 170.056 35.4878 169.841V168.171H37.4329ZM39 174.024V181.433C39 182.3 38.3004 183 37.4329 183H24.5671C23.6996 183 23 182.3 23 181.433V174.024L39 174.024Z" fill="#4A4A4A"/>
</g>
<rect opacity="0.10129" y="146" width="335" height="1" fill="#232323"/>
<g clip-path="url(#clip2_16_1432)">
<path d="M52.902 114.322H55.696C56.1947 114.322 56.6457 114.403 57.049 114.564C57.4597 114.725 57.808 114.967 58.094 115.29C58.3873 115.605 58.611 116.005 58.765 116.489C58.9263 116.966 59.007 117.523 59.007 118.161C59.007 118.799 58.9263 119.36 58.765 119.844C58.611 120.321 58.3873 120.72 58.094 121.043C57.808 121.358 57.4597 121.597 57.049 121.758C56.6457 121.919 56.1947 122 55.696 122H52.902V114.322ZM55.696 120.713C56.2387 120.713 56.6677 120.555 56.983 120.24C57.3057 119.917 57.467 119.426 57.467 118.766V117.556C57.467 116.896 57.3057 116.408 56.983 116.093C56.6677 115.77 56.2387 115.609 55.696 115.609H54.354V120.713H55.696ZM65.905 122L65.289 120.042H62.561L61.956 122H60.482L63.056 114.322H64.86L67.412 122H65.905ZM63.947 115.642H63.892L62.913 118.799H64.937L63.947 115.642ZM71.8379 115.609V122H70.3859V115.609H68.2079V114.322H74.0159V115.609H71.8379ZM80.237 122L79.621 120.042H76.893L76.288 122H74.814L77.388 114.322H79.192L81.744 122H80.237ZM78.279 115.642H78.224L77.245 118.799H79.269L78.279 115.642Z" fill="#4A4A4A"/>
<path fill-rule="evenodd" clip-rule="evenodd" d="M34.0107 119.25H31.5616C31.1239 119.25 30.8745 119.75 31.1377 120.1L34.5904 124.687C34.8026 124.969 35.226 124.969 35.4382 124.687L38.8909 120.1C39.1541 119.75 38.9047 119.25 38.467 119.25H36.0179V110.004C36.0179 109.449 35.5686 109 35.0143 109C34.46 109 34.0107 109.449 34.0107 110.004V119.25ZM27.4094 109.313C27.1972 109.031 26.7738 109.031 26.5616 109.313L23.1089 113.9C22.8457 114.25 23.0951 114.75 23.5328 114.75H25.9819V123.996C25.9819 124.551 26.4312 125 26.9855 125C27.5398 125 27.9891 124.551 27.9891 123.996V114.75H30.4382C30.8759 114.75 31.1253 114.25 30.8621 113.9L27.4094 109.313Z" fill="#4A4A4A"/>
</g>
<rect opacity="0.10129" y="88" width="335" height="1" fill="#232323"/>
<defs>
<clipPath id="clip0_16_1432">
<rect width="295" height="44" fill="white" transform="translate(20 224)"/>
</clipPath>
<clipPath id="clip1_16_1432">
<rect width="148" height="22" fill="white" transform="translate(20 164)"/>
</clipPath>
<clipPath id="clip2_16_1432">
<rect width="148" height="22" fill="white" transform="translate(20 106)"/>
</clipPath>
</defs>
</svg>
